<svg xmlns="http://www.w3.org/2000/svg" viewBox="0 0 64 64" width="64" height="64">
  <defs>
    <linearGradient id="bg" x1="0" y1="0" x2="1" y2="1">
      <stop offset="0" stop-color="#7c5cff"/>
      <stop offset="1" stop-color="#22d3ee"/>
    </linearGradient>
  </defs>
  <rect x="2" y="2" width="60" height="60" rx="16" fill="url(#bg)"/>
  <!-- đồng xu rơi vào hũ -->
  <circle cx="32" cy="12.5" r="4.2" fill="#ffd166" stroke="#0b1020" stroke-width="0.9"/>
  <!-- nắp hũ -->
  <rect x="20" y="17" width="24" height="8" rx="3" fill="#ffffff"/>
  <!-- khe bỏ xu -->
  <rect x="27" y="20" width="10" height="2.6" rx="1.3" fill="#1b2347"/>
  <!-- thân hũ -->
  <path d="M16 25 h32 a3 3 0 0 1 3 3 v16 a8 8 0 0 1 -8 8 H21 a8 8 0 0 1 -8 -8 V28 a3 3 0 0 1 3 -3 z" fill="#ffffff"/>
  <!-- đồng xu trong thân (hiệu ứng) -->
  <circle cx="32" cy="40" r="7" fill="url(#bg)"/>
  <text x="32" y="44.5" text-anchor="middle" font-family="Arial, sans-serif" font-weight="700" font-size="10" fill="#ffffff">₫</text>
</svg>
